<svg width="1380" height="973" viewBox="0 0 1380 973" fill="none" xmlns="http://www.w3.org/2000/svg">
<path d="M399 80C399 109.823 374.823 134 345 134C315.177 134 291 109.823 291 80C291 50.1766 315.177 26 345 26C374.823 26 399 50.1766 399 80Z" fill="#FF0000"/>
<path d="M708 853C708 882.823 683.823 907 654 907C624.177 907 600 882.823 600 853C600 823.177 624.177 799 654 799C683.823 799 708 823.177 708 853Z" fill="#FF0000"/>
<circle cx="1059" cy="781" r="54" fill="#FFCC00"/>
<path d="M399.5 885.5C399.5 915.324 375.323 939.5 345.5 939.5C315.677 939.5 291.5 915.324 291.5 885.5C291.5 855.677 315.677 831.5 345.5 831.5C375.323 831.5 399.5 855.677 399.5 885.5Z" fill="#FFCC00"/>
<path d="M1186 144C1186 173.823 1161.82 198 1132 198C1102.18 198 1078 173.823 1078 144C1078 114.177 1102.18 90 1132 90C1161.82 90 1186 114.177 1186 144Z" fill="#FFCC00"/>
<circle cx="96" cy="341" r="36" fill="#FFCC00"/>
<path d="M1354 257C1354 276.882 1337.88 293 1318 293C1298.12 293 1282 276.882 1282 257C1282 237.118 1298.12 221 1318 221C1337.88 221 1354 237.118 1354 257Z" fill="#FF0000"/>
<circle cx="1304" cy="691" r="34.5" fill="white" stroke="black" stroke-width="3"/>
<circle cx="969" cy="36" r="34.5" fill="white" stroke="black" stroke-width="3"/>
<circle cx="121" cy="871" r="34.5" fill="white" stroke="black" stroke-width="3"/>
<circle cx="96.5" cy="121.5" r="84" fill="white" stroke="black" stroke-width="3"/>
<circle cx="85.5" cy="690.5" r="85.5" fill="#FF0000"/>
<path d="M1338 473.5C1338 520.72 1299.72 559 1252.5 559C1205.28 559 1167 520.72 1167 473.5C1167 426.28 1205.28 388 1252.5 388C1299.72 388 1338 426.28 1338 473.5Z" fill="#FFCC00"/>
<circle cx="1294.5" cy="887.5" r="85.5" fill="#FF0000"/>
</svg>
