<svg width="1384" height="918" viewBox="0 0 1384 918" fill="none" xmlns="http://www.w3.org/2000/svg">
<circle cx="333" cy="147" r="54" fill="#FF0000"/>
<circle cx="1312" cy="85" r="52.5" fill="white" stroke="black" stroke-width="3"/>
<circle cx="333" cy="779" r="54" fill="#FFCC00"/>
<circle cx="911" cy="54" r="54" fill="#FF0000"/>
<circle cx="1001" cy="699" r="54" fill="#FFCC00"/>
<circle cx="100" cy="315" r="36" fill="#FFCC00"/>
<path d="M1384 287C1384 306.882 1367.88 323 1348 323C1328.12 323 1312 306.882 1312 287C1312 267.118 1328.12 251 1348 251C1367.88 251 1384 267.118 1384 287Z" fill="#FF0000"/>
<circle cx="1306" cy="568" r="34.5" fill="white" stroke="black" stroke-width="3"/>
<circle cx="36" cy="882" r="34.5" fill="white" stroke="black" stroke-width="3"/>
<circle cx="597" cy="49" r="36" fill="#FFCC00"/>
<circle cx="85.5" cy="85.5" r="84" fill="white" stroke="black" stroke-width="3"/>
<circle cx="149.5" cy="568.5" r="85.5" fill="#FF0000"/>
<circle cx="1109.5" cy="231.5" r="85.5" fill="#FFCC00"/>
<circle cx="646.5" cy="832.5" r="84" fill="white" stroke="black" stroke-width="3"/>
<circle cx="1280.5" cy="815.5" r="85.5" fill="#FF0000"/>
</svg>
