<?xml version="1.0" encoding="iso-8859-1"?>
<!-- Generator: Adobe Illustrator 19.0.0, SVG Export Plug-In . SVG Version: 6.00 Build 0)  -->
<svg version="1.1" id="Capa_1" xmlns="http://www.w3.org/2000/svg" xmlns:xlink="http://www.w3.org/1999/xlink" x="0px" y="0px"
	 viewBox="0 0 512 512" style="enable-background:new 0 0 512 512;" xml:space="preserve">
<g>
	<g>
		<g>
			<path d="M153.973,512h128.688l21.856-105.2L198.101,300.4L153.973,512z M269.653,417.2L256.645,480h-63.312l24-115.12
				L269.653,417.2z"/>
			<path d="M93.653,0v60.064L161.589,128h72.4l-12.48,59.92l106.4,106.4L362.661,128h146.992V0H93.653z M477.653,96H336.661
				l-27.984,133.84l-52.32-52.32L273.317,96h-98.48l-49.184-49.184V32h352V96z"/>
			<rect x="-4.143" y="74.968" transform="matrix(-0.7071 -0.7071 0.7071 -0.7071 32.3685 195.3439)" width="121.569" height="32"/>
			<rect x="117.567" y="151.907" transform="matrix(0.7071 -0.7071 0.7071 0.7071 -79.6076 143.6249)" width="32" height="32"/>
			<rect x="162.806" y="197.155" transform="matrix(0.7071 0.7071 -0.7071 0.7071 203.0947 -64.0029)" width="32" height="32"/>
			
				<rect x="161.2" y="355.545" transform="matrix(-0.7071 -0.7071 0.7071 -0.7071 312.9237 872.7028)" width="351.999" height="32"/>
		</g>
	</g>
</g>
<g>
</g>
<g>
</g>
<g>
</g>
<g>
</g>
<g>
</g>
<g>
</g>
<g>
</g>
<g>
</g>
<g>
</g>
<g>
</g>
<g>
</g>
<g>
</g>
<g>
</g>
<g>
</g>
<g>
</g>
</svg>
